<?xml version="1.0" encoding="utf-8"?>
<!-- Generator: Adobe Illustrator 17.0.0, SVG Export Plug-In . SVG Version: 6.00 Build 0)  -->
<!DOCTYPE svg PUBLIC "-//W3C//DTD SVG 1.1//EN" "http://www.w3.org/Graphics/SVG/1.1/DTD/svg11.dtd">
<svg version="1.1" id="Layer_1" xmlns="http://www.w3.org/2000/svg" xmlns:xlink="http://www.w3.org/1999/xlink" x="0px" y="0px"
	 width="462.587px" height="90.018px" viewBox="0 0 462.587 90.018" enable-background="new 0 0 462.587 90.018"
	 xml:space="preserve">
<g>
	<g>
		<path fill="#FFFFFF" d="M101.58,53.876V1.745H120.3v51.481c0,12.091,7.021,20.411,20.411,20.411s20.281-8.32,20.281-20.411V1.745
			h18.851v52.002c0,21.581-12.741,36.271-39.131,36.271C114.32,90.018,101.58,75.197,101.58,53.876z"/>
		<path fill="#FFFFFF" d="M192.968,88.457V1.745h18.46v86.713H192.968z"/>
		<path fill="#FFFFFF" d="M220.526,45.166c0-26.651,20.151-44.852,46.152-44.852c19.11,0,30.161,10.4,36.271,21.191l-15.861,7.8
			c-3.64-7.02-11.44-12.61-20.41-12.61c-15.73,0-27.172,12.09-27.172,28.471c0,16.38,11.441,28.471,27.172,28.471
			c8.97,0,16.771-5.46,20.41-12.61l15.861,7.67c-6.24,10.791-17.161,21.321-36.271,21.321
			C240.678,90.018,220.526,71.817,220.526,45.166z"/>
		<path fill="#FFFFFF" d="M369.508,88.457V52.056h-40.951v36.401h-18.461V1.745h18.461v34.062h40.951V1.745h18.591v86.713H369.508z"
			/>
		<path fill="#FFFFFF" d="M401.225,88.457V1.745h61.362v16.25h-42.901v18.331h41.991v16.25h-41.991v19.631h42.901v16.25H401.225z"/>
	</g>
	<path fill="#FFFFFF" d="M90,45c0,9.968-3.241,19.18-8.727,26.638L45,45l20.789,39.92C59.571,88.165,52.5,90,45,90
		C20.147,90,0,69.853,0,45S20.147,0,45,0S90,20.147,90,45z"/>
</g>
</svg>
